<?xml version="1.0" standalone="yes"?>
<svg xmlns="http://www.w3.org/2000/svg" width="512" height="512">
<path style="fill:#010101; stroke:none;" d="M0 0L0 512L287 512L287 511C227.477 510.836 178.105 464.077 145.86 419C137.327 407.073 122.389 391.189 118.499 377C114.486 362.358 118 342.193 118 327L118 218C128.271 230.406 135.986 245.458 144.692 259C165.905 291.996 185.921 325.964 208.576 358C222.635 377.881 236.415 398.443 257 412.251C310.983 448.462 387.992 411.512 407.333 354C420.592 314.571 415 269.02 415 228L415 0L395 0L395 220C395 256.824 400.651 299.036 392.116 335C379.395 388.598 314.917 417.127 267 388.547C245.361 375.641 231.638 349.456 218 329L137.333 208C127.367 193.051 117.634 177.942 107.667 163C105.649 159.975 100.25 149.891 95.4336 152.176C90.8509 154.35 93 167.847 93 172L93 232L93 484L10 484L10 125C10 83.0837 -2.20926 21.1422 50 6.42825C90.035 -4.85468 113.529 22.265 134.025 52C171.814 106.821 209.685 161.629 246.667 217C260.278 237.38 273.644 258.037 287.859 278C292.296 284.232 298.164 297.456 307.941 293.142C314.993 290.031 312 274.337 312 268L312 190L312 115L312 0L0 0z"/>
<path style="fill:#fff; stroke:none;" d="M312 0L312 115L312 190L312 268C312 274.861 315.048 290.149 306.981 293.254C297.895 296.75 291.595 282.893 287.667 277C273.821 256.231 259.517 235.765 245.667 215C210.306 161.984 174.189 109.469 138.025 57C129.068 44.0041 120.964 28.6755 109 18.1852C91.8712 3.16568 65.9642 0.950104 45 7.74536C-2.75964 23.226 10 87.0919 10 126L10 484L93 484L93 231L93 171C93 166.975 90.9562 153.993 96.189 152.461C100.879 151.088 106.295 161.944 108.333 165L137.667 209C165.634 250.951 192.498 293.81 221.576 335C234.433 353.213 245.724 375.549 265 387.91C313.549 419.043 378.834 388.547 392.255 335C395.918 320.386 395 304.928 395 290L395 222L395 0L312 0M415 0L415 227C415 266.765 420.807 311.712 408.33 350C389.267 408.498 319.095 446.066 262 414.688C233.81 399.196 215.635 367.953 198.333 342C171.119 301.178 146.419 258.677 119 218C116.299 224.436 118 234.049 118 241L118 292L118 352C118 360.058 115.966 371.403 118.843 379C124.579 394.144 138.535 409.985 148.116 423C168.476 450.657 191.615 475.401 222 492.135C276.915 522.379 347.943 516.997 402 487.691C415.588 480.325 428.935 470.782 440 459.985C503.235 398.28 502 315.87 502 234L502 128L502 35C502 27.6516 505.566 7.40405 500.972 1.60339C497.837 -2.35498 483.67 0 479 0L415 0z"/>
</svg>
